<?xml version="1.0" encoding="iso-8859-1"?>
<!-- Generator: Adobe Illustrator 16.0.0, SVG Export Plug-In . SVG Version: 6.00 Build 0)  -->
<!DOCTYPE svg PUBLIC "-//W3C//DTD SVG 1.1//EN" "http://www.w3.org/Graphics/SVG/1.1/DTD/svg11.dtd">
<svg version="1.1" id="Capa_1" xmlns="http://www.w3.org/2000/svg" xmlns:xlink="http://www.w3.org/1999/xlink" x="0px" y="0px"
	 width="25.532px" height="25.532px" viewBox="0 0 25.532 25.532" style="enable-background:new 0 0 25.532 25.532;"
	 xml:space="preserve">
<g>
	<path fill="white" d="M12.766,25.532C5.727,25.532,0,19.805,0,12.766C0,5.727,5.727,0,12.766,0c7.039,0,12.766,5.727,12.766,12.766
		C25.532,19.805,19.805,25.532,12.766,25.532z M12.766,2C6.829,2,2,6.829,2,12.766c0,5.938,4.83,10.767,10.766,10.767
		s10.766-4.829,10.766-10.767C23.532,6.829,18.703,2,12.766,2z M19.414,8.766c0,0.368-0.298,0.667-0.667,0.667H6.783
		c-0.368,0-0.667-0.298-0.667-0.667c0-0.368,0.298-0.667,0.667-0.667h11.964C19.116,8.099,19.414,8.398,19.414,8.766z
		 M19.414,12.766c0,0.368-0.298,0.668-0.667,0.668H6.783c-0.368,0-0.667-0.299-0.667-0.668c0-0.367,0.298-0.666,0.667-0.666h11.964
		C19.116,12.1,19.414,12.398,19.414,12.766z M19.414,16.766c0,0.368-0.298,0.668-0.667,0.668H6.783
		c-0.368,0-0.667-0.299-0.667-0.668c0-0.367,0.298-0.666,0.667-0.666h11.964C19.116,16.1,19.414,16.398,19.414,16.766z"/>
</g>
<g>
</g>
<g>
</g>
<g>
</g>
<g>
</g>
<g>
</g>
<g>
</g>
<g>
</g>
<g>
</g>
<g>
</g>
<g>
</g>
<g>
</g>
<g>
</g>
<g>
</g>
<g>
</g>
<g>
</g>
</svg>
